<svg xmlns="http://www.w3.org/2000/svg" width="170" height="320" viewBox="0 0 170 320">
  <rect width="170" height="320" fill="#000000"/>
  <rect x="0" y="0" width="170" height="320" rx="4" fill="none" stroke="#2b2b2b" stroke-width="1.5"/>
  <rect x="5" y="5" width="160" height="310" fill="none" stroke="#2b2b2b" stroke-width="1.2"/>
  <text x="10" y="24" fill="#00ff66" font-size="16" font-family="monospace" font-weight="700">Historique</text>
  <text x="10" y="44" fill="#00ff66" font-size="16" font-family="monospace" font-weight="700">7 jours</text>
  <line x1="15" y1="70" x2="15" y2="200" stroke="#ffffff" stroke-width="1.2"/>
  <line x1="15" y1="270" x2="140" y2="270" stroke="#ffffff" stroke-width="1.2"/>
  <line x1="15" y1="70" x2="15" y2="270" stroke="#2b2b2b" stroke-width="1.2"/>
  <line x1="15" y1="270" x2="155" y2="270" stroke="#2b2b2b" stroke-width="1.2"/>
  <line x1="12" y1="70" x2="18" y2="70" stroke="#00ff66" stroke-width="1.2"/>
  <text x="0" y="72" fill="#00ff66" font-size="8" font-family="monospace" font-weight="700">100</text>
  <line x1="12" y1="118" x2="18" y2="118" stroke="#00ff66" stroke-width="1.2"/>
  <text x="0" y="120" fill="#00ff66" font-size="8" font-family="monospace" font-weight="700">75</text>
  <line x1="12" y1="166" x2="18" y2="166" stroke="#00ff66" stroke-width="1.2"/>
  <text x="0" y="168" fill="#00ff66" font-size="8" font-family="monospace" font-weight="700">50</text>
  <line x1="12" y1="214" x2="18" y2="214" stroke="#00ff66" stroke-width="1.2"/>
  <text x="0" y="216" fill="#00ff66" font-size="8" font-family="monospace" font-weight="700">25</text>
  <line x1="12" y1="262" x2="18" y2="262" stroke="#00ff66" stroke-width="1.2"/>
  <text x="0" y="264" fill="#00ff66" font-size="8" font-family="monospace" font-weight="700">0</text>
  <line x1="16" y1="187" x2="38" y2="175" stroke="#66f2ff" stroke-width="1.2"/>
  <line x1="16" y1="186" x2="38" y2="174" stroke="#66f2ff" stroke-width="1.2"/>
  <line x1="16" y1="188" x2="38" y2="176" stroke="#66f2ff" stroke-width="1.2"/>
  <line x1="38" y1="175" x2="61" y2="162" stroke="#66f2ff" stroke-width="1.2"/>
  <line x1="38" y1="174" x2="61" y2="161" stroke="#66f2ff" stroke-width="1.2"/>
  <line x1="38" y1="176" x2="61" y2="163" stroke="#66f2ff" stroke-width="1.2"/>
  <line x1="61" y1="162" x2="84" y2="150" stroke="#66f2ff" stroke-width="1.2"/>
  <line x1="61" y1="161" x2="84" y2="149" stroke="#66f2ff" stroke-width="1.2"/>
  <line x1="61" y1="163" x2="84" y2="151" stroke="#66f2ff" stroke-width="1.2"/>
  <line x1="84" y1="150" x2="107" y2="156" stroke="#66f2ff" stroke-width="1.2"/>
  <line x1="84" y1="149" x2="107" y2="155" stroke="#66f2ff" stroke-width="1.2"/>
  <line x1="84" y1="151" x2="107" y2="157" stroke="#66f2ff" stroke-width="1.2"/>
  <line x1="107" y1="156" x2="130" y2="145" stroke="#66f2ff" stroke-width="1.2"/>
  <line x1="107" y1="155" x2="130" y2="144" stroke="#66f2ff" stroke-width="1.2"/>
  <line x1="107" y1="157" x2="130" y2="146" stroke="#66f2ff" stroke-width="1.2"/>
  <line x1="130" y1="145" x2="153" y2="143" stroke="#66f2ff" stroke-width="1.2"/>
  <line x1="130" y1="144" x2="153" y2="142" stroke="#66f2ff" stroke-width="1.2"/>
  <line x1="130" y1="146" x2="153" y2="144" stroke="#66f2ff" stroke-width="1.2"/>
  <text x="10" y="281" fill="#00ff66" font-size="8" font-family="monospace" font-weight="700">Lu</text>
  <text x="32" y="281" fill="#00ff66" font-size="8" font-family="monospace" font-weight="700">Ma</text>
  <text x="55" y="281" fill="#00ff66" font-size="8" font-family="monospace" font-weight="700">Me</text>
  <text x="78" y="281" fill="#00ff66" font-size="8" font-family="monospace" font-weight="700">Je</text>
  <text x="101" y="281" fill="#00ff66" font-size="8" font-family="monospace" font-weight="700">Ve</text>
  <text x="124" y="281" fill="#00ff66" font-size="8" font-family="monospace" font-weight="700">Sa</text>
  <text x="147" y="281" fill="#00ff66" font-size="8" font-family="monospace" font-weight="700">Di</text>
  <text x="95" y="291" fill="#00ff66" font-size="8" font-family="monospace" font-weight="700">&lt;- 7 jours</text>
</svg>